<svg xmlns="http://www.w3.org/2000/svg" viewBox="0 0 1950.78 331.91"><defs><style>.cls-1{fill:#fff;}</style></defs><g id="图层_1_复制" data-name="图层 1_复制"><path class="cls-1" d="M212.69,92.62a127.75,127.75,0,0,0-17.75,2.32,119.21,119.21,0,0,0-25.67,8.35L165.69,105l-3.61,1.89c-.6.32-1.23.62-1.83,1l-1.81,1.08c-1.21.73-2.48,1.4-3.69,2.21A121.93,121.93,0,0,0,140.13,122a114.83,114.83,0,0,0-13.81,14.25,120.13,120.13,0,0,0-22.47,110.39A119.8,119.8,0,0,0,128.57,292a122.38,122.38,0,0,0,92.91,42,123.8,123.8,0,0,0,87.15-36.82A128,128,0,0,0,332.51,263a135.31,135.31,0,0,0,6.74-17.28l1.21-4.19c.42-1.37.68-2.76,1-4.12.71-2.7,1.12-5.38,1.63-7.95a131.82,131.82,0,0,0,1.7-27.11c-.12-1.89-.13-3.68-.3-5.35l-.43-4.71c-.35-2.91-.7-5.39-1-7.4-.67-4-.9-6.17-.63-6.25s1.06,2,2.3,5.89c.53,2,1.16,4.44,1.79,7.37l.85,4.75c.32,1.7.47,3.52.72,5.44A123.16,123.16,0,0,1,348,230.2c-.4,2.7-.7,5.51-1.31,8.36-.29,1.42-.51,2.89-.88,4.34l-1.08,4.43a137.19,137.19,0,0,1-6.34,18.39,132.66,132.66,0,0,1-24.05,36.88A130.62,130.62,0,0,1,274.17,332a133.33,133.33,0,0,1-52.49,12.56A131.93,131.93,0,0,1,166,334,134.16,134.16,0,0,1,100.9,146.43a137.17,137.17,0,0,1,13.27-20,129.46,129.46,0,0,1,15.44-16.31,137.12,137.12,0,0,1,16.45-12.59c1.36-.92,2.78-1.71,4.15-2.56l2-1.24c.68-.4,1.39-.76,2.07-1.13l4.08-2.19,4.05-1.94a134.29,134.29,0,0,1,29.09-9.74A138.42,138.42,0,0,1,211.75,76a134,134,0,0,1,60.48,10.72A129.71,129.71,0,0,1,299,102.21,128,128,0,0,1,319.93,122a117.57,117.57,0,0,1,14,20.72c1.82,3.31,3.22,6.59,4.54,9.61,1.16,3.09,2.28,5.91,3,8.59q.57,2,1.05,3.78c.26,1.21.48,2.35.67,3.42s.36,2,.48,3,.14,1.77.17,2.54c.07,3.06-.36,4.81-1.37,5.08-2.14.57-5-5.12-10-14.08-1.18-2.26-2.69-4.64-4.17-7.27s-3.26-5.33-5.25-8.12a139.22,139.22,0,0,0-14.1-17.5A131.44,131.44,0,0,0,289.7,115a124,124,0,0,0-23.88-13.17A120.83,120.83,0,0,0,212.69,92.62Z" transform="translate(-32.18 -48.96)"/><path class="cls-1" d="M173.58,104.39a116.11,116.11,0,0,1,15.9-6.52,112.79,112.79,0,0,1,25.36-5.13l3.77-.3,3.9-.11c1.32-.06,2.66,0,4,0s2.73,0,4.12.13A115.56,115.56,0,0,1,248,94.72,113.34,113.34,0,0,1,335.49,181a111.58,111.58,0,0,1-99.62,136.18,109.38,109.38,0,0,1-41.5-4.58,110.7,110.7,0,0,1-32.85-16.8A112.52,112.52,0,0,1,149.27,285a110.72,110.72,0,0,1-9.49-11.09,102.19,102.19,0,0,1-11.73-20.33c-.61-1.5-1.25-2.89-1.72-4.25L125,245.55c-.74-2.38-1.29-4.43-1.71-6.1-.71-3.36-.94-5.17-.67-5.24.71-.21,2.56,6.84,8.46,17.95a111.09,111.09,0,0,0,12.59,18.72,114,114,0,0,0,9.59,10,112.76,112.76,0,0,0,12,9.57,106.17,106.17,0,0,0,31.31,14.45,102.54,102.54,0,0,0,77.62-9.87,101,101,0,0,0,48.94-68.45,99.19,99.19,0,0,0-93.27-118.07c-1.19-.08-2.37,0-3.53-.06s-2.31,0-3.44.05l-3.34.13-3.24.3a98.41,98.41,0,0,0-21.7,4.63,104.88,104.88,0,0,0-13.57,5.65A99.79,99.79,0,0,0,147,147.6a102,102,0,0,0-11.65,19.17,109.36,109.36,0,0,0-7,19.83,119.57,119.57,0,0,0-3,18.28c-.3,2.81-.36,5.48-.52,8s-.16,4.82-.11,6.94c0,8.48,0,13.84-2.06,14.41-1,.27-2.23-.76-3.59-3a21.36,21.36,0,0,1-1-1.89q-.48-1.07-1-2.34c-.33-.85-.68-1.76-1-2.75s-.6-2.05-.9-3.18a72.71,72.71,0,0,1-1.57-7.5,88.69,88.69,0,0,1-.84-8.9,96.45,96.45,0,0,1,1.37-21,107.07,107.07,0,0,1,6.89-23.27,109,109,0,0,1,13-22.61A112.9,112.9,0,0,1,173.58,104.39Z" transform="translate(-32.18 -48.96)"/><path class="cls-1" d="M155.49,270.72a99.75,99.75,0,0,1-9-11.82,97,97,0,0,1-9.94-20c-.35-1-.72-2-1.08-3.09l-1-3.22c-.34-1.09-.62-2.21-.9-3.35s-.58-2.28-.81-3.46a100.55,100.55,0,0,1-2-15,97.76,97.76,0,0,1,52.42-92.15,96,96,0,0,1,135.35,52.68,93.42,93.42,0,0,1-1.4,66.4A96.54,96.54,0,0,1,311,250.26a95.25,95.25,0,0,1-7.11,10.28,87.36,87.36,0,0,1-14.3,14.12c-8.8,6.8-14.76,9-14.95,8.58-.38-.61,5-3.76,12.76-11.12a91.39,91.39,0,0,0,23.75-36.64A90.44,90.44,0,0,0,316,206.63a86.9,86.9,0,0,0-25.25-61.23,85.4,85.4,0,0,0-66.61-24.82,83.57,83.57,0,0,0-75.6,101.75c.19,1,.49,1.93.72,2.88s.48,1.88.79,2.78l.84,2.68.95,2.56a83,83,0,0,0,8.5,16.62,90.23,90.23,0,0,0,7.55,9.79,84.19,84.19,0,0,0,30.43,21.5,86.92,86.92,0,0,0,18.09,5.35A94.57,94.57,0,0,0,234.07,288a104.79,104.79,0,0,0,15.58-1.37c2.37-.33,4.57-.83,6.65-1.22s4-.85,5.74-1.31c7-1.67,11.52-2.69,12.6-.83s-2,5.62-8.89,9.79a61.38,61.38,0,0,1-5.84,3.08,75.4,75.4,0,0,1-7.2,2.78,81.94,81.94,0,0,1-17.81,3.68,91.38,91.38,0,0,1-20.94-.46,93.9,93.9,0,0,1-21.78-5.75A97.44,97.44,0,0,1,155.49,270.72Z" transform="translate(-32.18 -48.96)"/><path class="cls-1" d="M279.86,374.43H133.61a14.32,14.32,0,0,1-12.37-7.14L32.85,214.2a5,5,0,0,1,8.66-5L129.9,362.29a4.29,4.29,0,0,0,3.71,2.14H279.86a5,5,0,0,1,0,10Z" transform="translate(-32.18 -48.96)"/><path class="cls-1" d="M310.38,374.43a4.94,4.94,0,0,1-2.5-.67,5,5,0,0,1-1.83-6.83l88.39-153.09a4.32,4.32,0,0,0,0-4.29L321.31,82.89a5,5,0,0,1,8.66-5L403.1,204.55a14.3,14.3,0,0,1,0,14.29L314.71,371.93A5,5,0,0,1,310.38,374.43Z" transform="translate(-32.18 -48.96)"/><path class="cls-1" d="M52.44,190.27a5,5,0,0,1-4.33-7.5L121.24,56.11A14.31,14.31,0,0,1,133.61,49H310.38a5,5,0,0,1,0,10H133.61a4.28,4.28,0,0,0-3.71,2.15L56.77,187.77A5,5,0,0,1,52.44,190.27Z" transform="translate(-32.18 -48.96)"/></g><g id="图层_3" data-name="图层 3"><path class="cls-1" d="M506.79,61.2h98.88C675.37,61.2,727,85.39,727,158c0,70-51.84,101.76-119.43,101.76H562.47V375.11H506.79Zm96.19,154c46.85,0,69.12-18.63,69.12-57.22,0-39-24.38-52.22-71-52.22H562.47V215.18Z" transform="translate(-32.18 -48.96)"/><path class="cls-1" d="M762.63,56h55.29v67.75l-2.3,45.5c19.77-18.62,43.2-35.71,75.45-35.71,50.5,0,72.58,34.17,72.58,93.69V375.11h-55.3V234.38c0-38.79-11.13-53.38-36.67-53.38-20.73,0-34.37,10.18-53.76,29.38V375.11H762.63Z" transform="translate(-32.18 -48.96)"/><path class="cls-1" d="M1006.08,86.76c0-18.62,14.59-31.29,34.18-31.29s34.17,12.67,34.17,31.29c0,18.24-14.59,31.3-34.17,31.3S1006.08,105,1006.08,86.76Zm6.34,52.58h55.29V375.11h-55.29Z" transform="translate(-32.18 -48.96)"/><path class="cls-1" d="M1197.12,108h-90.63V61.2h236.93V108H1252.8V375.11h-55.68Z" transform="translate(-32.18 -48.96)"/><path class="cls-1" d="M1320,257.42c0-76.61,53.19-123.84,108.67-123.84,63.75,0,97.35,46.08,97.35,111.93a143.08,143.08,0,0,1-2.4,26.88H1374c4.6,41.86,31.48,65.67,69.5,65.67,20.16,0,37.44-6.34,54.72-17.09L1517,355.34c-22.46,15.16-50.88,25.53-80.83,25.53C1371.07,380.87,1320,335.18,1320,257.42Zm158.21-22.66c0-36.29-16.13-58.37-48.38-58.37-27.46,0-51.65,20.55-56.45,58.37Z" transform="translate(-32.18 -48.96)"/><path class="cls-1" d="M1558.07,257.42c0-78.53,55.49-123.84,118.27-123.84,30,0,51.84,11.52,68.93,26.49L1718.39,196C1705.91,185,1694,178.7,1679.22,178.7c-38,0-64.32,31.49-64.32,78.72s25.92,78.33,62.59,78.33c18.43,0,35.33-9,48.77-20.35l22.46,36.48a116.41,116.41,0,0,1-77,29C1607.41,380.87,1558.07,335.56,1558.07,257.42Z" transform="translate(-32.18 -48.96)"/><path class="cls-1" d="M1781.94,56h55.29v67.75l-2.3,45.5c19.77-18.62,43.2-35.71,75.45-35.71,50.5,0,72.58,34.17,72.58,93.69V375.11h-55.3V234.38c0-38.79-11.13-53.38-36.67-53.38-20.74,0-34.37,10.18-53.76,29.38V375.11h-55.29Z" transform="translate(-32.18 -48.96)"/></g></svg>